<?xml version="1.0" encoding="UTF-8" ?>
<!DOCTYPE svg PUBLIC "-//W3C//DTD SVG 1.1//EN" "http://www.w3.org/Graphics/SVG/1.1/DTD/svg11.dtd">
<svg width="235pt" height="120pt" viewBox="0 0 235 120" version="1.1" xmlns="http://www.w3.org/2000/svg">
<path fill="#ffffff" d=" M 0.00 0.00 L 235.00 0.00 L 235.00 44.33 C 234.01 36.78 229.05 29.95 222.02 26.93 C 211.70 22.38 200.10 23.33 189.11 23.18 C 189.10 47.84 189.40 72.50 188.89 97.16 C 191.95 97.17 195.01 97.18 198.07 97.17 C 198.16 89.39 198.11 81.61 198.10 73.83 C 206.78 73.68 216.04 73.42 223.67 68.72 C 229.29 65.36 233.01 59.61 235.00 53.48 L 235.00 120.00 L 0.00 120.00 L 0.00 0.00 Z" />
<path fill="#3fa1b9" d=" M 30.20 19.15 C 42.26 8.03 58.26 0.25 74.95 1.01 C 83.29 1.30 91.83 0.10 99.96 2.54 C 106.32 4.23 113.20 6.29 117.60 11.50 C 99.81 8.80 80.95 8.26 64.07 15.43 C 52.15 20.61 40.60 29.05 35.58 41.46 C 28.32 42.55 21.20 44.36 13.93 45.36 L 14.06 44.19 C 14.16 43.74 14.35 42.84 14.45 42.39 C 18.27 33.81 23.40 25.69 30.20 19.15 Z" />
<path fill="#3fa1b9" d=" M 115.10 24.40 C 123.05 21.69 131.60 22.29 139.83 22.85 C 140.10 25.47 140.33 28.09 140.56 30.71 C 132.57 30.44 123.96 28.86 116.50 32.59 C 113.23 34.07 111.27 37.30 110.39 40.67 C 107.54 40.35 104.66 40.33 101.82 39.96 C 101.78 39.47 101.71 38.51 101.67 38.03 C 103.34 31.53 108.87 26.52 115.10 24.40 Z" />
<path fill="#3fa1b9" d=" M 159.99 23.22 C 162.93 23.26 165.87 23.28 168.81 23.27 C 168.70 47.87 168.54 72.48 168.87 97.08 C 165.85 97.19 162.83 97.21 159.81 97.15 C 160.02 72.51 159.67 47.85 159.99 23.22 Z" />
<path fill="#3fa1b9" d=" M 189.11 23.18 C 200.10 23.33 211.70 22.38 222.02 26.93 C 229.05 29.95 234.01 36.78 235.00 44.33 L 235.00 53.48 C 233.01 59.61 229.29 65.36 223.67 68.72 C 216.04 73.42 206.78 73.68 198.10 73.83 C 198.11 81.61 198.16 89.39 198.07 97.17 C 195.01 97.18 191.95 97.17 188.89 97.16 C 189.40 72.50 189.10 47.84 189.11 23.18 Z" />
<path fill="#ffffff" d=" M 198.06 30.58 C 205.01 30.28 212.56 30.29 218.56 34.36 C 228.22 40.26 228.22 56.55 218.58 62.47 C 212.55 66.53 205.00 66.49 198.03 66.78 C 197.51 54.72 197.96 42.64 198.06 30.58 Z" />
<path fill="#a1d3e4" d=" M 100.79 39.75 C 101.01 39.32 101.45 38.46 101.67 38.03 C 101.71 38.51 101.78 39.47 101.82 39.96 C 104.66 40.33 107.54 40.35 110.39 40.67 C 118.79 42.54 127.96 43.20 135.32 47.96 C 128.43 48.63 121.46 48.22 114.61 49.43 C 110.61 49.69 106.32 48.52 102.54 50.27 C 97.73 49.24 92.85 50.39 87.99 50.28 C 75.82 50.35 63.68 51.50 51.68 53.55 C 45.05 54.86 38.24 55.05 31.69 56.72 C 31.62 58.89 31.60 61.06 31.53 63.23 C 31.34 61.08 31.26 58.93 31.14 56.78 C 24.47 57.94 17.67 59.21 11.65 62.45 C 10.18 63.21 8.72 64.01 7.24 64.77 C 4.06 60.52 -0.13 56.02 1.10 50.23 C 5.18 47.65 10.67 47.80 14.06 44.19 L 13.93 45.36 C 21.20 44.36 28.32 42.55 35.58 41.46 C 57.26 39.79 79.05 38.59 100.79 39.75 Z" />
<path fill="#3fa1b9" d=" M 102.54 50.27 C 106.32 48.52 110.61 49.69 114.61 49.43 C 121.80 55.55 131.94 57.33 138.25 64.63 C 142.73 69.53 143.53 76.90 141.48 83.05 C 139.50 88.72 134.60 92.89 129.14 95.10 C 119.77 99.00 109.35 98.54 99.46 97.61 C 99.39 95.02 99.29 92.44 99.17 89.86 C 107.84 90.57 116.88 91.14 125.23 88.19 C 129.83 86.55 133.89 82.21 133.07 77.01 C 132.87 71.11 127.40 67.66 122.68 65.32 C 115.28 61.50 106.38 58.30 102.54 50.27 Z" />
<path fill="#3fa1b9" d=" M 11.65 62.45 C 17.67 59.21 24.47 57.94 31.14 56.78 C 31.26 58.93 31.34 61.08 31.53 63.23 C 31.67 64.68 31.92 66.11 32.16 67.55 C 50.17 72.27 68.96 72.02 87.43 72.84 C 85.76 74.65 83.16 74.74 80.93 75.31 C 65.73 78.11 50.17 77.49 34.84 76.25 C 35.66 78.02 37.16 79.34 38.90 80.17 C 50.32 84.69 62.82 85.70 75.00 84.95 C 80.04 84.88 85.09 85.23 90.11 85.64 C 87.16 87.57 83.55 87.80 80.18 88.44 C 67.76 90.22 55.10 89.94 42.61 89.08 C 43.43 91.04 45.09 92.44 47.10 93.07 C 54.89 95.92 63.25 96.47 71.44 97.27 C 80.03 97.88 88.63 98.35 97.25 98.31 C 85.92 103.92 72.85 102.16 60.63 102.88 C 62.96 107.23 68.13 108.65 72.27 110.72 C 80.51 113.74 89.07 115.98 97.71 117.52 C 97.70 117.77 97.69 118.25 97.68 118.50 C 95.11 118.66 92.58 119.14 90.03 119.36 C 80.66 118.30 71.16 119.77 61.82 118.45 C 54.59 116.94 47.46 114.56 41.01 110.92 C 34.10 107.15 28.64 101.29 23.70 95.27 C 16.25 85.99 12.18 74.30 11.65 62.45 Z" />
</svg>
